<?xml version="1.0" standalone="no"?>
<!DOCTYPE svg PUBLIC "-//W3C//DTD SVG 20010904//EN"
 "http://www.w3.org/TR/2001/REC-SVG-20010904/DTD/svg10.dtd">
<svg version="1.0" xmlns="http://www.w3.org/2000/svg"
 width="512.000000pt" height="512.000000pt" viewBox="0 0 512.000000 512.000000"
 preserveAspectRatio="xMidYMid meet">

<g transform="translate(0.000000,512.000000) scale(0.100000,-0.100000)"
fill="#000000" stroke="none">
<path d="M0 4625 l0 -495 53 0 c84 0 153 -25 202 -74 123 -123 85 -328 -73
-398 -23 -11 -74 -22 -112 -25 l-70 -6 0 -493 0 -494 660 0 660 0 0 -424 c0
-250 4 -457 11 -502 22 -163 84 -310 184 -441 l55 -73 0 -105 0 -105 -85 0
-85 0 0 -245 0 -245 85 0 85 0 0 -250 0 -250 990 0 990 0 0 250 0 250 85 0 85
0 0 245 0 245 -85 0 -85 0 0 193 c0 185 1 195 21 213 52 46 150 217 182 319
39 121 47 216 47 576 l0 349 660 0 660 0 0 494 0 493 -70 6 c-38 3 -89 14
-112 25 -158 70 -196 275 -73 398 49 49 118 74 202 74 l53 0 0 495 0 495
-2560 0 -2560 0 0 -495z m830 205 l0 -120 80 0 80 0 0 120 0 120 1570 0 1570
0 0 -120 0 -120 80 0 80 0 0 120 0 120 330 0 330 0 0 -334 0 -334 -43 -10
c-55 -14 -127 -62 -178 -120 -142 -159 -134 -407 16 -558 51 -51 123 -95 178
-108 l27 -6 0 -335 0 -335 -330 0 -330 0 0 125 0 125 -80 0 -80 0 0 -125 0
-125 -1075 0 -1075 0 0 73 c0 122 -38 214 -122 298 -70 70 -158 111 -252 117
-91 5 -141 -9 -194 -54 -76 -65 -86 -96 -90 -276 l-4 -158 -164 0 -164 0 0
125 0 125 -80 0 -80 0 0 -125 0 -125 -330 0 -330 0 0 335 0 335 28 6 c54 13
126 57 177 108 150 151 158 399 16 558 -51 58 -123 106 -178 120 l-43 10 0
334 0 334 330 0 330 0 0 -120z m840 -1717 c48 -19 98 -69 124 -123 20 -42 21
-64 24 -341 l4 -297 65 -58 c141 -124 232 -292 248 -457 11 -115 4 -107 97
-107 l81 0 -6 82 c-15 205 -113 414 -264 565 l-63 63 0 100 0 100 825 0 825 0
0 -362 c0 -389 -5 -438 -53 -558 -34 -82 -81 -158 -144 -231 l-53 -60 0 -220
0 -219 -820 0 -820 0 0 136 0 135 -65 77 c-69 82 -133 199 -162 297 -16 54
-18 126 -21 750 -2 518 0 696 9 712 23 43 88 49 169 16z m1880 -2373 l0 -80
-990 0 -990 0 0 80 0 80 990 0 990 0 0 -80z m-162 -407 l2 -163 -830 0 -830 0
0 158 c0 87 3 162 7 165 3 4 376 6 827 5 l821 -3 3 -162z"/>
<path d="M2396 4775 c-504 -105 -827 -579 -726 -1065 75 -365 331 -629 695
-716 95 -23 295 -23 390 0 296 71 531 268 644 539 211 507 -79 1087 -614 1228
-104 27 -292 34 -389 14z m389 -189 c230 -75 404 -248 482 -481 24 -72 27 -94
27 -225 0 -132 -3 -152 -28 -225 -71 -209 -227 -377 -426 -459 -396 -163 -845
45 -986 459 -25 73 -28 93 -28 225 0 131 3 153 27 225 87 258 287 440 552 501
96 22 281 13 380 -20z"/>
<path d="M2411 4295 c-68 -46 -128 -88 -133 -93 -8 -8 35 -86 78 -140 1 -2 46
26 101 62 l98 66 3 -360 2 -360 85 0 85 0 -2 453 -3 452 -95 2 -95 2 -124 -84z"/>
<path d="M830 4375 l0 -165 80 0 80 0 0 165 0 165 -80 0 -80 0 0 -165z"/>
<path d="M4130 4375 l0 -165 80 0 80 0 0 165 0 165 -80 0 -80 0 0 -165z"/>
<path d="M830 3885 l0 -165 80 0 80 0 0 165 0 165 -80 0 -80 0 0 -165z"/>
<path d="M4130 3885 l0 -165 80 0 80 0 0 165 0 165 -80 0 -80 0 0 -165z"/>
<path d="M830 3385 l0 -165 80 0 80 0 0 165 0 165 -80 0 -80 0 0 -165z"/>
<path d="M4130 3385 l0 -165 80 0 80 0 0 165 0 165 -80 0 -80 0 0 -165z"/>
<path d="M580 2395 l0 -85 -85 0 -85 0 0 -80 0 -80 85 0 85 0 0 -85 0 -85 80
0 80 0 0 85 0 85 85 0 85 0 0 80 0 80 -85 0 -85 0 0 85 0 85 -80 0 -80 0 0
-85z m160 -165 l0 -80 -80 0 -80 0 0 80 0 80 80 0 80 0 0 -80z"/>
<path d="M4460 1815 l0 -85 -85 0 -85 0 0 -80 0 -80 85 0 85 0 0 -85 0 -85 80
0 80 0 0 85 0 85 85 0 85 0 0 80 0 80 -85 0 -85 0 0 85 0 85 -80 0 -80 0 0
-85z m160 -165 l0 -80 -80 0 -80 0 0 80 0 80 80 0 80 0 0 -80z"/>
<path d="M330 580 l0 -80 -80 0 -80 0 0 -85 0 -85 80 0 80 0 0 -80 0 -80 85 0
85 0 0 80 0 80 80 0 80 0 0 85 0 85 -80 0 -80 0 0 80 0 80 -85 0 -85 0 0 -80z
m170 -165 l0 -85 -85 0 -85 0 0 85 0 85 85 0 85 0 0 -85z"/>
<path d="M4050 580 l0 -80 80 0 80 0 0 -85 0 -85 -80 0 -79 0 -3 83 -3 82 -80
0 -80 0 -3 -82 -3 -83 86 0 85 0 0 -80 0 -80 80 0 80 0 0 80 0 80 85 0 86 0
-3 83 -3 82 -82 3 -83 3 0 79 0 80 -80 0 -80 0 0 -80z"/>
</g>
</svg>
